<svg xmlns="http://www.w3.org/2000/svg" xmlns:xlink="http://www.w3.org/1999/xlink" width="250" zoomAndPan="magnify" viewBox="0 0 187.5 30.000001" height="40" preserveAspectRatio="xMidYMid meet" version="1.0"><defs><g/><clipPath id="c821583aae"><path d="M 2.78125 0 L 184.234375 0 L 184.234375 29.03125 L 2.78125 29.03125 Z M 2.78125 0 " clip-rule="nonzero"/></clipPath><clipPath id="18338856ee"><path d="M 14.578125 3.609375 L 26.875 3.609375 L 26.875 9.464844 L 14.578125 9.464844 Z M 14.578125 3.609375 " clip-rule="nonzero"/></clipPath><clipPath id="8bce4143bc"><path d="M 4.335938 16.339844 L 14.734375 16.339844 L 14.734375 27.625 L 4.335938 27.625 Z M 4.335938 16.339844 " clip-rule="nonzero"/></clipPath><clipPath id="3d417db9de"><path d="M 23 12 L 26.886719 12 L 26.886719 15 L 23 15 Z M 23 12 " clip-rule="nonzero"/></clipPath></defs><g clip-path="url(#c821583aae)"><path fill="#ffffff" d="M 2.78125 0 L 184.71875 0 L 184.71875 36.386719 L 2.78125 36.386719 Z M 2.78125 0 " fill-opacity="1" fill-rule="nonzero"/><path fill="#ffffff" d="M 2.78125 0 L 184.71875 0 L 184.71875 29.109375 L 2.78125 29.109375 Z M 2.78125 0 " fill-opacity="1" fill-rule="nonzero"/><path fill="#ffffff" d="M 2.78125 0 L 184.71875 0 L 184.71875 29.109375 L 2.78125 29.109375 Z M 2.78125 0 " fill-opacity="1" fill-rule="nonzero"/></g><g clip-path="url(#18338856ee)"><path fill="#4682b4" d="M 14.875 7.613281 C 14.941406 7.617188 15.003906 7.625 15.078125 7.640625 C 15.171875 7.660156 15.332031 7.703125 15.457031 7.769531 C 15.480469 7.777344 15.5 7.789062 15.519531 7.800781 L 15.519531 5.507812 L 23.707031 5.507812 L 23.707031 9.460938 C 24.007812 9.320312 24.324219 9.226562 24.636719 9.1875 C 24.640625 9.1875 24.644531 9.1875 24.648438 9.183594 L 24.648438 9.175781 C 26.09375 7.679688 27.871094 5.390625 26.195312 5.410156 C 25.867188 5.417969 25.3125 5.699219 24.648438 6.140625 L 24.648438 4.761719 C 24.648438 4.125 24.125 3.609375 23.484375 3.609375 L 15.742188 3.609375 C 15.101562 3.609375 14.582031 4.125 14.582031 4.761719 L 14.582031 7.621094 C 14.609375 7.617188 14.636719 7.617188 14.664062 7.613281 C 14.734375 7.609375 14.804688 7.609375 14.875 7.613281 " fill-opacity="1" fill-rule="nonzero"/></g><path fill="#4682b4" d="M 24.433594 18.066406 C 24.277344 18.109375 24.101562 18.128906 23.914062 18.121094 C 23.847656 18.117188 23.777344 18.109375 23.707031 18.097656 L 23.707031 18.535156 L 17.339844 18.535156 C 17.332031 18.570312 17.324219 18.601562 17.316406 18.632812 C 17.28125 18.757812 17.242188 18.882812 17.199219 19.007812 C 17.21875 18.851562 17.234375 18.691406 17.246094 18.535156 C 17.277344 18.140625 17.28125 17.746094 17.261719 17.359375 C 17.183594 15.648438 16.671875 14.109375 16.070312 13.625 C 15.996094 13.5625 15.921875 13.519531 15.84375 13.492188 C 15.871094 13.375 15.898438 13.25 15.921875 13.121094 C 15.945312 13.011719 15.964844 12.898438 15.984375 12.78125 C 16.15625 11.777344 16.257812 10.558594 16.015625 9.613281 C 15.914062 9.222656 15.757812 8.878906 15.519531 8.617188 C 15.507812 8.601562 15.492188 8.582031 15.476562 8.566406 C 15.347656 8.441406 15.203125 8.335938 15.035156 8.257812 C 14.863281 8.179688 14.714844 8.144531 14.582031 8.148438 C 14.113281 8.164062 13.863281 8.648438 13.695312 9.308594 C 13.457031 10.257812 13.394531 11.574219 13.117188 12.375 C 12.621094 13.804688 11.460938 14.195312 10.226562 16.707031 C 10.265625 16.773438 10.308594 16.84375 10.347656 16.914062 L 10.777344 17.636719 L 10.988281 17.996094 C 11.199219 18.355469 11.414062 18.714844 11.625 19.078125 L 12.253906 20.164062 L 12.570312 20.707031 L 12.882812 21.25 L 13.339844 22.050781 L 13.507812 22.34375 L 13.664062 22.621094 L 13.855469 23.0625 L 20.050781 21.316406 L 16.566406 21.140625 C 16.566406 21.140625 16.570312 21.140625 16.570312 21.140625 L 20.601562 21.160156 L 20.675781 21.136719 L 23.484375 21.136719 C 24.125 21.136719 24.648438 20.621094 24.648438 19.984375 L 24.648438 17.996094 C 24.617188 18.007812 24.582031 18.019531 24.550781 18.03125 C 24.515625 18.042969 24.476562 18.058594 24.433594 18.066406 " fill-opacity="1" fill-rule="nonzero"/><g clip-path="url(#8bce4143bc)"><path fill="#4682b4" d="M 11.15625 25.136719 C 10.753906 25.3125 10.277344 25.132812 10.097656 24.734375 C 9.917969 24.332031 10.097656 23.863281 10.5 23.683594 C 10.90625 23.503906 11.378906 23.683594 11.558594 24.082031 C 11.742188 24.484375 11.558594 24.957031 11.15625 25.136719 Z M 14.046875 23.523438 L 14.027344 23.496094 L 13.570312 22.808594 L 13.328125 22.449219 L 13.089844 22.085938 L 12.636719 21.398438 L 12.292969 20.875 L 11.949219 20.347656 L 11.265625 19.292969 C 11.039062 18.945312 10.816406 18.589844 10.589844 18.238281 C 10.589844 18.238281 10.589844 18.238281 10.585938 18.238281 L 10.03125 17.367188 L 9.910156 17.179688 C 9.761719 16.945312 9.613281 16.714844 9.46875 16.484375 C 9.441406 16.4375 9.414062 16.394531 9.386719 16.351562 L 8.230469 17.070312 L 6.847656 17.921875 L 5.457031 18.773438 L 4.335938 19.457031 C 4.71875 20.082031 5.101562 20.703125 5.480469 21.332031 L 6.132812 22.40625 L 6.78125 23.480469 L 7.425781 24.558594 C 7.640625 24.917969 7.855469 25.277344 8.066406 25.636719 L 9.238281 27.625 L 10.464844 26.921875 C 10.699219 26.785156 10.933594 26.648438 11.171875 26.515625 L 12.589844 25.714844 L 13.304688 25.320312 C 13.542969 25.1875 13.777344 25.054688 14.015625 24.925781 L 14.734375 24.535156 L 14.378906 24.015625 L 14.046875 23.523438 " fill-opacity="1" fill-rule="nonzero"/></g><path fill="#4682b4" d="M 24.648438 9.714844 C 24.367188 9.757812 24.074219 9.863281 23.796875 10.035156 C 23.765625 10.054688 23.738281 10.074219 23.707031 10.097656 C 23.667969 10.121094 23.628906 10.152344 23.59375 10.179688 C 23.5625 10.203125 23.53125 10.230469 23.5 10.253906 C 23.441406 10.304688 23.382812 10.359375 23.332031 10.414062 C 23.132812 10.625 22.988281 10.859375 22.914062 11.09375 C 22.820312 11.386719 22.835938 11.679688 22.988281 11.917969 C 23.089844 12.082031 23.246094 12.199219 23.433594 12.269531 C 23.519531 12.304688 23.609375 12.328125 23.707031 12.339844 C 23.90625 12.371094 24.128906 12.355469 24.355469 12.304688 C 24.453125 12.28125 24.550781 12.25 24.648438 12.210938 C 24.78125 12.160156 24.914062 12.09375 25.046875 12.011719 C 25.257812 11.878906 25.4375 11.722656 25.582031 11.554688 C 25.9375 11.140625 26.078125 10.652344 25.929688 10.269531 C 25.910156 10.222656 25.886719 10.175781 25.855469 10.128906 C 25.632812 9.773438 25.164062 9.632812 24.648438 9.714844 " fill-opacity="1" fill-rule="nonzero"/><g clip-path="url(#3d417db9de)"><path fill="#4682b4" d="M 26.039062 12.605469 C 25.804688 12.441406 25.460938 12.394531 25.082031 12.460938 C 25.066406 12.460938 25.046875 12.464844 25.03125 12.46875 C 24.90625 12.496094 24.777344 12.53125 24.648438 12.582031 C 24.523438 12.632812 24.402344 12.691406 24.28125 12.757812 C 24.253906 12.773438 24.226562 12.789062 24.199219 12.808594 C 24.011719 12.925781 23.847656 13.058594 23.707031 13.203125 C 23.617188 13.292969 23.539062 13.390625 23.472656 13.488281 C 23.199219 13.886719 23.121094 14.3125 23.316406 14.621094 C 23.40625 14.761719 23.539062 14.859375 23.707031 14.921875 C 23.964844 15.015625 24.296875 15.015625 24.648438 14.921875 C 24.6875 14.914062 24.726562 14.902344 24.765625 14.886719 C 24.957031 14.824219 25.152344 14.734375 25.34375 14.617188 C 26.148438 14.113281 26.546875 13.304688 26.230469 12.804688 C 26.179688 12.726562 26.117188 12.660156 26.039062 12.605469 " fill-opacity="1" fill-rule="nonzero"/></g><path fill="#4682b4" d="M 25.886719 15.558594 C 25.886719 15.558594 25.871094 15.539062 25.84375 15.5 C 25.835938 15.488281 25.824219 15.476562 25.816406 15.464844 C 25.59375 15.21875 25.199219 15.128906 24.777344 15.210938 C 24.734375 15.21875 24.691406 15.230469 24.648438 15.242188 C 24.46875 15.292969 24.285156 15.371094 24.109375 15.480469 C 23.953125 15.574219 23.820312 15.6875 23.707031 15.804688 C 23.703125 15.8125 23.695312 15.816406 23.691406 15.820312 C 23.308594 16.234375 23.179688 16.746094 23.40625 17.105469 C 23.445312 17.164062 23.488281 17.214844 23.539062 17.257812 C 23.589844 17.304688 23.644531 17.339844 23.707031 17.371094 C 23.957031 17.5 24.296875 17.519531 24.648438 17.421875 C 24.828125 17.375 25.011719 17.292969 25.1875 17.183594 C 25.839844 16.777344 26.15625 16.097656 25.921875 15.625 C 25.910156 15.601562 25.898438 15.582031 25.886719 15.558594 " fill-opacity="1" fill-rule="nonzero"/><path fill="#4682b4" d="M 18.441406 10.144531 L 20.539062 10.144531 C 20.703125 9.914062 20.867188 9.699219 21.035156 9.488281 C 21.046875 9.476562 21.058594 9.460938 21.070312 9.449219 L 17.441406 9.449219 C 17.25 9.449219 17.09375 9.605469 17.09375 9.796875 L 17.09375 13.921875 C 17.09375 14.113281 17.25 14.269531 17.441406 14.269531 L 21.597656 14.269531 C 21.789062 14.269531 21.945312 14.113281 21.945312 13.921875 L 21.945312 10.90625 C 21.894531 11.023438 21.839844 11.140625 21.785156 11.261719 C 21.617188 11.613281 21.4375 11.960938 21.246094 12.308594 L 21.246094 13.574219 L 17.792969 13.574219 L 17.792969 10.144531 L 18.441406 10.144531 " fill-opacity="1" fill-rule="nonzero"/><path fill="#4682b4" d="M 21.664062 9.457031 C 21.570312 9.5625 21.480469 9.667969 21.394531 9.773438 C 21.296875 9.894531 21.203125 10.015625 21.105469 10.144531 C 20.976562 10.320312 20.84375 10.503906 20.710938 10.699219 C 20.421875 11.128906 20.128906 11.617188 19.820312 12.191406 L 19.808594 12.214844 L 19.785156 12.195312 C 19.574219 12 19.390625 11.839844 19.214844 11.691406 C 19.0625 11.5625 18.890625 11.429688 18.675781 11.273438 C 18.613281 11.226562 18.550781 11.183594 18.484375 11.136719 C 18.414062 11.085938 18.339844 11.039062 18.265625 10.992188 C 18.234375 10.972656 18.207031 10.953125 18.175781 10.9375 C 18.175781 10.941406 18.175781 10.945312 18.171875 10.949219 C 18.195312 11 18.222656 11.046875 18.246094 11.097656 C 18.273438 11.152344 18.300781 11.203125 18.332031 11.257812 C 18.371094 11.332031 18.410156 11.402344 18.453125 11.472656 C 18.582031 11.699219 18.699219 11.882812 18.8125 12.050781 C 19.050781 12.410156 19.320312 12.773438 19.613281 13.136719 C 19.636719 13.167969 19.667969 13.195312 19.703125 13.21875 C 19.765625 13.257812 19.839844 13.277344 19.914062 13.277344 C 20.042969 13.277344 20.167969 13.210938 20.238281 13.101562 L 20.261719 13.0625 C 20.625 12.496094 20.957031 11.910156 21.246094 11.320312 C 21.289062 11.238281 21.328125 11.152344 21.367188 11.066406 C 21.542969 10.699219 21.6875 10.351562 21.816406 10.011719 C 21.851562 9.90625 21.890625 9.796875 21.929688 9.683594 C 22.003906 9.453125 22.078125 9.210938 22.136719 8.960938 C 21.96875 9.121094 21.8125 9.289062 21.664062 9.457031 " fill-opacity="1" fill-rule="nonzero"/><g fill="#4682b4" fill-opacity="1"><g transform="translate(30.866967, 18.205003)"><g><path d="M 5.5 -14.4375 C 5.75 -13.976562 6.035156 -13.410156 6.359375 -12.734375 C 6.691406 -12.066406 7.035156 -11.335938 7.390625 -10.546875 C 7.742188 -9.765625 8.09375 -8.960938 8.4375 -8.140625 C 8.789062 -7.328125 9.117188 -6.5625 9.421875 -5.84375 C 9.722656 -6.5625 10.046875 -7.328125 10.390625 -8.140625 C 10.742188 -8.960938 11.097656 -9.765625 11.453125 -10.546875 C 11.804688 -11.335938 12.144531 -12.066406 12.46875 -12.734375 C 12.800781 -13.410156 13.09375 -13.976562 13.34375 -14.4375 L 16.296875 -14.4375 C 16.441406 -13.476562 16.570312 -12.40625 16.6875 -11.21875 C 16.800781 -10.03125 16.90625 -8.796875 17 -7.515625 C 17.09375 -6.234375 17.175781 -4.941406 17.25 -3.640625 C 17.320312 -2.347656 17.390625 -1.132812 17.453125 0 L 14.28125 0 C 14.238281 -1.40625 14.179688 -2.929688 14.109375 -4.578125 C 14.035156 -6.234375 13.929688 -7.90625 13.796875 -9.59375 C 13.546875 -9.007812 13.265625 -8.363281 12.953125 -7.65625 C 12.648438 -6.945312 12.347656 -6.234375 12.046875 -5.515625 C 11.753906 -4.804688 11.46875 -4.128906 11.1875 -3.484375 C 10.914062 -2.835938 10.679688 -2.285156 10.484375 -1.828125 L 8.21875 -1.828125 C 8.019531 -2.285156 7.78125 -2.835938 7.5 -3.484375 C 7.226562 -4.128906 6.941406 -4.804688 6.640625 -5.515625 C 6.335938 -6.234375 6.035156 -6.945312 5.734375 -7.65625 C 5.429688 -8.363281 5.148438 -9.007812 4.890625 -9.59375 C 4.753906 -7.90625 4.648438 -6.234375 4.578125 -4.578125 C 4.515625 -2.929688 4.460938 -1.40625 4.421875 0 L 1.25 0 C 1.300781 -1.132812 1.363281 -2.347656 1.4375 -3.640625 C 1.519531 -4.941406 1.601562 -6.234375 1.6875 -7.515625 C 1.78125 -8.796875 1.882812 -10.03125 2 -11.21875 C 2.125 -12.40625 2.253906 -13.476562 2.390625 -14.4375 Z M 5.5 -14.4375 "/></g></g></g><g fill="#4682b4" fill-opacity="1"><g transform="translate(49.566141, 18.205003)"><g><path d="M 11.71875 -5.5 C 11.71875 -4.632812 11.59375 -3.84375 11.34375 -3.125 C 11.09375 -2.414062 10.726562 -1.804688 10.25 -1.296875 C 9.78125 -0.796875 9.210938 -0.40625 8.546875 -0.125 C 7.890625 0.15625 7.15625 0.296875 6.34375 0.296875 C 5.53125 0.296875 4.789062 0.15625 4.125 -0.125 C 3.46875 -0.40625 2.90625 -0.796875 2.4375 -1.296875 C 1.96875 -1.804688 1.597656 -2.414062 1.328125 -3.125 C 1.066406 -3.84375 0.9375 -4.632812 0.9375 -5.5 C 0.9375 -6.363281 1.070312 -7.148438 1.34375 -7.859375 C 1.613281 -8.566406 1.988281 -9.171875 2.46875 -9.671875 C 2.945312 -10.171875 3.515625 -10.554688 4.171875 -10.828125 C 4.835938 -11.109375 5.5625 -11.25 6.34375 -11.25 C 7.132812 -11.25 7.859375 -11.109375 8.515625 -10.828125 C 9.171875 -10.554688 9.734375 -10.171875 10.203125 -9.671875 C 10.679688 -9.171875 11.050781 -8.566406 11.3125 -7.859375 C 11.582031 -7.148438 11.71875 -6.363281 11.71875 -5.5 Z M 8.546875 -5.5 C 8.546875 -6.457031 8.351562 -7.210938 7.96875 -7.765625 C 7.59375 -8.316406 7.050781 -8.59375 6.34375 -8.59375 C 5.632812 -8.59375 5.082031 -8.316406 4.6875 -7.765625 C 4.300781 -7.210938 4.109375 -6.457031 4.109375 -5.5 C 4.109375 -4.539062 4.300781 -3.78125 4.6875 -3.21875 C 5.082031 -2.65625 5.632812 -2.375 6.34375 -2.375 C 7.050781 -2.375 7.59375 -2.65625 7.96875 -3.21875 C 8.351562 -3.78125 8.546875 -4.539062 8.546875 -5.5 Z M 8.546875 -5.5 "/></g></g></g><g fill="#4682b4" fill-opacity="1"><g transform="translate(62.219873, 18.205003)"><g><path d="M 8.484375 -5.5625 C 8.484375 -7.5625 7.75 -8.5625 6.28125 -8.5625 C 5.957031 -8.5625 5.640625 -8.519531 5.328125 -8.4375 C 5.015625 -8.351562 4.757812 -8.25 4.5625 -8.125 L 4.5625 -2.484375 C 4.71875 -2.453125 4.910156 -2.425781 5.140625 -2.40625 C 5.378906 -2.382812 5.640625 -2.375 5.921875 -2.375 C 6.765625 -2.375 7.398438 -2.664062 7.828125 -3.25 C 8.265625 -3.832031 8.484375 -4.601562 8.484375 -5.5625 Z M 11.65625 -5.484375 C 11.65625 -4.609375 11.523438 -3.816406 11.265625 -3.109375 C 11.003906 -2.398438 10.628906 -1.796875 10.140625 -1.296875 C 9.660156 -0.796875 9.066406 -0.410156 8.359375 -0.140625 C 7.648438 0.128906 6.84375 0.265625 5.9375 0.265625 C 5.5625 0.265625 5.164062 0.25 4.75 0.21875 C 4.34375 0.1875 3.941406 0.140625 3.546875 0.078125 C 3.148438 0.0234375 2.769531 -0.0351562 2.40625 -0.109375 C 2.050781 -0.191406 1.734375 -0.273438 1.453125 -0.359375 L 1.453125 -15.671875 L 4.5625 -16.171875 L 4.5625 -10.71875 C 4.90625 -10.863281 5.265625 -10.976562 5.640625 -11.0625 C 6.023438 -11.144531 6.429688 -11.1875 6.859375 -11.1875 C 7.640625 -11.1875 8.328125 -11.050781 8.921875 -10.78125 C 9.515625 -10.507812 10.015625 -10.125 10.421875 -9.625 C 10.828125 -9.125 11.132812 -8.523438 11.34375 -7.828125 C 11.550781 -7.128906 11.65625 -6.347656 11.65625 -5.484375 Z M 11.65625 -5.484375 "/></g></g></g><g fill="#4682b4" fill-opacity="1"><g transform="translate(74.811065, 18.205003)"><g><path d="M 4.5625 0 L 1.453125 0 L 1.453125 -10.96875 L 4.5625 -10.96875 Z M 4.859375 -14.125 C 4.859375 -13.5625 4.671875 -13.113281 4.296875 -12.78125 C 3.929688 -12.457031 3.5 -12.296875 3 -12.296875 C 2.5 -12.296875 2.0625 -12.457031 1.6875 -12.78125 C 1.320312 -13.113281 1.140625 -13.5625 1.140625 -14.125 C 1.140625 -14.695312 1.320312 -15.144531 1.6875 -15.46875 C 2.0625 -15.800781 2.5 -15.96875 3 -15.96875 C 3.5 -15.96875 3.929688 -15.800781 4.296875 -15.46875 C 4.671875 -15.144531 4.859375 -14.695312 4.859375 -14.125 Z M 4.859375 -14.125 "/></g></g></g><g fill="#4682b4" fill-opacity="1"><g transform="translate(80.83566, 18.205003)"><g><path d="M 5.84375 0.203125 C 4.9375 0.191406 4.203125 0.0976562 3.640625 -0.078125 C 3.078125 -0.265625 2.628906 -0.519531 2.296875 -0.84375 C 1.972656 -1.164062 1.75 -1.5625 1.625 -2.03125 C 1.507812 -2.5 1.453125 -3.023438 1.453125 -3.609375 L 1.453125 -15.671875 L 4.5625 -16.171875 L 4.5625 -4.234375 C 4.5625 -3.953125 4.582031 -3.695312 4.625 -3.46875 C 4.664062 -3.25 4.742188 -3.0625 4.859375 -2.90625 C 4.984375 -2.757812 5.15625 -2.632812 5.375 -2.53125 C 5.601562 -2.4375 5.90625 -2.378906 6.28125 -2.359375 Z M 5.84375 0.203125 "/></g></g></g><g fill="#4682b4" fill-opacity="1"><g transform="translate(87.423104, 18.205003)"><g><path d="M 0.9375 -5.40625 C 0.9375 -6.375 1.082031 -7.222656 1.375 -7.953125 C 1.675781 -8.679688 2.070312 -9.285156 2.5625 -9.765625 C 3.050781 -10.253906 3.609375 -10.625 4.234375 -10.875 C 4.867188 -11.125 5.519531 -11.25 6.1875 -11.25 C 7.75 -11.25 8.976562 -10.773438 9.875 -9.828125 C 10.78125 -8.878906 11.234375 -7.476562 11.234375 -5.625 C 11.234375 -5.445312 11.222656 -5.25 11.203125 -5.03125 C 11.191406 -4.8125 11.179688 -4.617188 11.171875 -4.453125 L 4.125 -4.453125 C 4.195312 -3.816406 4.492188 -3.3125 5.015625 -2.9375 C 5.546875 -2.5625 6.257812 -2.375 7.15625 -2.375 C 7.71875 -2.375 8.273438 -2.425781 8.828125 -2.53125 C 9.378906 -2.632812 9.828125 -2.765625 10.171875 -2.921875 L 10.59375 -0.390625 C 10.425781 -0.304688 10.203125 -0.222656 9.921875 -0.140625 C 9.640625 -0.0546875 9.328125 0.015625 8.984375 0.078125 C 8.648438 0.140625 8.285156 0.191406 7.890625 0.234375 C 7.503906 0.273438 7.117188 0.296875 6.734375 0.296875 C 5.742188 0.296875 4.882812 0.148438 4.15625 -0.140625 C 3.425781 -0.429688 2.820312 -0.832031 2.34375 -1.34375 C 1.863281 -1.851562 1.507812 -2.453125 1.28125 -3.140625 C 1.050781 -3.835938 0.9375 -4.59375 0.9375 -5.40625 Z M 8.234375 -6.59375 C 8.222656 -6.851562 8.175781 -7.109375 8.09375 -7.359375 C 8.019531 -7.609375 7.898438 -7.828125 7.734375 -8.015625 C 7.578125 -8.210938 7.378906 -8.375 7.140625 -8.5 C 6.898438 -8.625 6.597656 -8.6875 6.234375 -8.6875 C 5.890625 -8.6875 5.585938 -8.628906 5.328125 -8.515625 C 5.078125 -8.398438 4.867188 -8.242188 4.703125 -8.046875 C 4.535156 -7.847656 4.40625 -7.617188 4.3125 -7.359375 C 4.226562 -7.109375 4.164062 -6.851562 4.125 -6.59375 Z M 8.234375 -6.59375 "/></g></g></g><g fill="#4682b4" fill-opacity="1"><g transform="translate(99.597369, 18.205003)"><g/></g></g><g fill="#4682b4" fill-opacity="1"><g transform="translate(104.600495, 18.205003)"><g><path d="M 5.90625 -14.609375 C 8.070312 -14.609375 9.726562 -14.222656 10.875 -13.453125 C 12.03125 -12.679688 12.609375 -11.484375 12.609375 -9.859375 C 12.609375 -8.847656 12.375 -8.023438 11.90625 -7.390625 C 11.445312 -6.753906 10.78125 -6.257812 9.90625 -5.90625 C 10.195312 -5.539062 10.5 -5.125 10.8125 -4.65625 C 11.132812 -4.1875 11.453125 -3.695312 11.765625 -3.1875 C 12.078125 -2.6875 12.378906 -2.160156 12.671875 -1.609375 C 12.960938 -1.066406 13.234375 -0.53125 13.484375 0 L 9.84375 0 C 9.570312 -0.46875 9.300781 -0.945312 9.03125 -1.4375 C 8.757812 -1.925781 8.484375 -2.398438 8.203125 -2.859375 C 7.921875 -3.316406 7.640625 -3.75 7.359375 -4.15625 C 7.078125 -4.5625 6.800781 -4.9375 6.53125 -5.28125 L 4.921875 -5.28125 L 4.921875 0 L 1.671875 0 L 1.671875 -14.234375 C 2.378906 -14.367188 3.109375 -14.460938 3.859375 -14.515625 C 4.617188 -14.578125 5.300781 -14.609375 5.90625 -14.609375 Z M 6.09375 -11.84375 C 5.851562 -11.84375 5.640625 -11.832031 5.453125 -11.8125 C 5.265625 -11.800781 5.085938 -11.789062 4.921875 -11.78125 L 4.921875 -7.859375 L 5.84375 -7.859375 C 7.0625 -7.859375 7.929688 -8.007812 8.453125 -8.3125 C 8.984375 -8.625 9.25 -9.144531 9.25 -9.875 C 9.25 -10.582031 8.984375 -11.085938 8.453125 -11.390625 C 7.921875 -11.691406 7.132812 -11.84375 6.09375 -11.84375 Z M 6.09375 -11.84375 "/></g></g></g><g fill="#4682b4" fill-opacity="1"><g transform="translate(118.505006, 18.205003)"><g><path d="M 11.71875 -5.5 C 11.71875 -4.632812 11.59375 -3.84375 11.34375 -3.125 C 11.09375 -2.414062 10.726562 -1.804688 10.25 -1.296875 C 9.78125 -0.796875 9.210938 -0.40625 8.546875 -0.125 C 7.890625 0.15625 7.15625 0.296875 6.34375 0.296875 C 5.53125 0.296875 4.789062 0.15625 4.125 -0.125 C 3.46875 -0.40625 2.90625 -0.796875 2.4375 -1.296875 C 1.96875 -1.804688 1.597656 -2.414062 1.328125 -3.125 C 1.066406 -3.84375 0.9375 -4.632812 0.9375 -5.5 C 0.9375 -6.363281 1.070312 -7.148438 1.34375 -7.859375 C 1.613281 -8.566406 1.988281 -9.171875 2.46875 -9.671875 C 2.945312 -10.171875 3.515625 -10.554688 4.171875 -10.828125 C 4.835938 -11.109375 5.5625 -11.25 6.34375 -11.25 C 7.132812 -11.25 7.859375 -11.109375 8.515625 -10.828125 C 9.171875 -10.554688 9.734375 -10.171875 10.203125 -9.671875 C 10.679688 -9.171875 11.050781 -8.566406 11.3125 -7.859375 C 11.582031 -7.148438 11.71875 -6.363281 11.71875 -5.5 Z M 8.546875 -5.5 C 8.546875 -6.457031 8.351562 -7.210938 7.96875 -7.765625 C 7.59375 -8.316406 7.050781 -8.59375 6.34375 -8.59375 C 5.632812 -8.59375 5.082031 -8.316406 4.6875 -7.765625 C 4.300781 -7.210938 4.109375 -6.457031 4.109375 -5.5 C 4.109375 -4.539062 4.300781 -3.78125 4.6875 -3.21875 C 5.082031 -2.65625 5.632812 -2.375 6.34375 -2.375 C 7.050781 -2.375 7.59375 -2.65625 7.96875 -3.21875 C 8.351562 -3.78125 8.546875 -4.539062 8.546875 -5.5 Z M 8.546875 -5.5 "/></g></g></g><g fill="#4682b4" fill-opacity="1"><g transform="translate(131.158733, 18.205003)"><g><path d="M 10.8125 -0.375 C 10.289062 -0.21875 9.613281 -0.078125 8.78125 0.046875 C 7.945312 0.179688 7.070312 0.25 6.15625 0.25 C 5.21875 0.25 4.4375 0.125 3.8125 -0.125 C 3.195312 -0.375 2.707031 -0.722656 2.34375 -1.171875 C 1.988281 -1.628906 1.734375 -2.171875 1.578125 -2.796875 C 1.429688 -3.421875 1.359375 -4.109375 1.359375 -4.859375 L 1.359375 -10.96875 L 4.453125 -10.96875 L 4.453125 -5.234375 C 4.453125 -4.234375 4.582031 -3.507812 4.84375 -3.0625 C 5.113281 -2.613281 5.613281 -2.390625 6.34375 -2.390625 C 6.5625 -2.390625 6.796875 -2.398438 7.046875 -2.421875 C 7.296875 -2.441406 7.519531 -2.46875 7.71875 -2.5 L 7.71875 -10.96875 L 10.8125 -10.96875 Z M 10.8125 -0.375 "/></g></g></g><g fill="#4682b4" fill-opacity="1"><g transform="translate(143.437233, 18.205003)"><g><path d="M 1.359375 -13.6875 L 4.453125 -14.1875 L 4.453125 -10.96875 L 8.1875 -10.96875 L 8.1875 -8.375 L 4.453125 -8.375 L 4.453125 -4.515625 C 4.453125 -3.867188 4.566406 -3.347656 4.796875 -2.953125 C 5.023438 -2.566406 5.488281 -2.375 6.1875 -2.375 C 6.519531 -2.375 6.863281 -2.40625 7.21875 -2.46875 C 7.570312 -2.53125 7.894531 -2.617188 8.1875 -2.734375 L 8.625 -0.3125 C 8.25 -0.15625 7.832031 -0.0234375 7.375 0.078125 C 6.914062 0.191406 6.351562 0.25 5.6875 0.25 C 4.84375 0.25 4.140625 0.132812 3.578125 -0.09375 C 3.023438 -0.320312 2.582031 -0.640625 2.25 -1.046875 C 1.914062 -1.460938 1.679688 -1.960938 1.546875 -2.546875 C 1.421875 -3.128906 1.359375 -3.773438 1.359375 -4.484375 Z M 1.359375 -13.6875 "/></g></g></g><g fill="#4682b4" fill-opacity="1"><g transform="translate(152.693009, 18.205003)"><g><path d="M 4.5625 0 L 1.453125 0 L 1.453125 -10.96875 L 4.5625 -10.96875 Z M 4.859375 -14.125 C 4.859375 -13.5625 4.671875 -13.113281 4.296875 -12.78125 C 3.929688 -12.457031 3.5 -12.296875 3 -12.296875 C 2.5 -12.296875 2.0625 -12.457031 1.6875 -12.78125 C 1.320312 -13.113281 1.140625 -13.5625 1.140625 -14.125 C 1.140625 -14.695312 1.320312 -15.144531 1.6875 -15.46875 C 2.0625 -15.800781 2.5 -15.96875 3 -15.96875 C 3.5 -15.96875 3.929688 -15.800781 4.296875 -15.46875 C 4.671875 -15.144531 4.859375 -14.695312 4.859375 -14.125 Z M 4.859375 -14.125 "/></g></g></g><g fill="#4682b4" fill-opacity="1"><g transform="translate(158.717604, 18.205003)"><g><path d="M 1.453125 -10.59375 C 1.984375 -10.738281 2.664062 -10.878906 3.5 -11.015625 C 4.332031 -11.148438 5.207031 -11.21875 6.125 -11.21875 C 7.0625 -11.21875 7.835938 -11.09375 8.453125 -10.84375 C 9.066406 -10.601562 9.554688 -10.257812 9.921875 -9.8125 C 10.285156 -9.375 10.539062 -8.847656 10.6875 -8.234375 C 10.84375 -7.617188 10.921875 -6.9375 10.921875 -6.1875 L 10.921875 0 L 7.8125 0 L 7.8125 -5.8125 C 7.8125 -6.8125 7.679688 -7.519531 7.421875 -7.9375 C 7.160156 -8.351562 6.664062 -8.5625 5.9375 -8.5625 C 5.71875 -8.5625 5.484375 -8.550781 5.234375 -8.53125 C 4.984375 -8.507812 4.757812 -8.488281 4.5625 -8.46875 L 4.5625 0 L 1.453125 0 Z M 1.453125 -10.59375 "/></g></g></g><g fill="#4682b4" fill-opacity="1"><g transform="translate(170.996103, 18.205003)"><g><path d="M 0.9375 -5.40625 C 0.9375 -6.375 1.082031 -7.222656 1.375 -7.953125 C 1.675781 -8.679688 2.070312 -9.285156 2.5625 -9.765625 C 3.050781 -10.253906 3.609375 -10.625 4.234375 -10.875 C 4.867188 -11.125 5.519531 -11.25 6.1875 -11.25 C 7.75 -11.25 8.976562 -10.773438 9.875 -9.828125 C 10.78125 -8.878906 11.234375 -7.476562 11.234375 -5.625 C 11.234375 -5.445312 11.222656 -5.25 11.203125 -5.03125 C 11.191406 -4.8125 11.179688 -4.617188 11.171875 -4.453125 L 4.125 -4.453125 C 4.195312 -3.816406 4.492188 -3.3125 5.015625 -2.9375 C 5.546875 -2.5625 6.257812 -2.375 7.15625 -2.375 C 7.71875 -2.375 8.273438 -2.425781 8.828125 -2.53125 C 9.378906 -2.632812 9.828125 -2.765625 10.171875 -2.921875 L 10.59375 -0.390625 C 10.425781 -0.304688 10.203125 -0.222656 9.921875 -0.140625 C 9.640625 -0.0546875 9.328125 0.015625 8.984375 0.078125 C 8.648438 0.140625 8.285156 0.191406 7.890625 0.234375 C 7.503906 0.273438 7.117188 0.296875 6.734375 0.296875 C 5.742188 0.296875 4.882812 0.148438 4.15625 -0.140625 C 3.425781 -0.429688 2.820312 -0.832031 2.34375 -1.34375 C 1.863281 -1.851562 1.507812 -2.453125 1.28125 -3.140625 C 1.050781 -3.835938 0.9375 -4.59375 0.9375 -5.40625 Z M 8.234375 -6.59375 C 8.222656 -6.851562 8.175781 -7.109375 8.09375 -7.359375 C 8.019531 -7.609375 7.898438 -7.828125 7.734375 -8.015625 C 7.578125 -8.210938 7.378906 -8.375 7.140625 -8.5 C 6.898438 -8.625 6.597656 -8.6875 6.234375 -8.6875 C 5.890625 -8.6875 5.585938 -8.628906 5.328125 -8.515625 C 5.078125 -8.398438 4.867188 -8.242188 4.703125 -8.046875 C 4.535156 -7.847656 4.40625 -7.617188 4.3125 -7.359375 C 4.226562 -7.109375 4.164062 -6.851562 4.125 -6.59375 Z M 8.234375 -6.59375 "/></g></g></g><g fill="#4682b4" fill-opacity="1"><g transform="translate(33.669695, 25.501986)"><g><path d="M 0.78125 0 L 0.78125 -5.203125 L 2.765625 -5.203125 C 3.085938 -5.203125 3.359375 -5.148438 3.578125 -5.046875 C 3.796875 -4.953125 3.960938 -4.8125 4.078125 -4.625 C 4.191406 -4.4375 4.25 -4.207031 4.25 -3.9375 C 4.25 -3.71875 4.1875 -3.515625 4.0625 -3.328125 C 3.945312 -3.148438 3.773438 -3.007812 3.546875 -2.90625 L 3.546875 -2.828125 C 3.890625 -2.742188 4.148438 -2.585938 4.328125 -2.359375 C 4.503906 -2.140625 4.59375 -1.859375 4.59375 -1.515625 C 4.59375 -1.023438 4.453125 -0.648438 4.171875 -0.390625 C 3.890625 -0.128906 3.46875 0 2.90625 0 Z M 2.734375 -3.015625 C 3.015625 -3.015625 3.234375 -3.085938 3.390625 -3.234375 C 3.554688 -3.390625 3.640625 -3.601562 3.640625 -3.875 C 3.640625 -4.144531 3.5625 -4.347656 3.40625 -4.484375 C 3.257812 -4.628906 3.035156 -4.703125 2.734375 -4.703125 L 1.40625 -4.703125 L 1.40625 -3.015625 Z M 2.859375 -0.5 C 3.597656 -0.5 3.96875 -0.835938 3.96875 -1.515625 C 3.96875 -2.179688 3.597656 -2.515625 2.859375 -2.515625 L 1.40625 -2.515625 L 1.40625 -0.5 Z M 2.859375 -0.5 "/></g></g></g><g fill="#4682b4" fill-opacity="1"><g transform="translate(39.044834, 25.501986)"><g><path d="M 0.6875 0 L 0.6875 -3.9375 L 1.234375 -3.9375 L 1.234375 -3.3125 L 1.3125 -3.296875 C 1.488281 -3.742188 1.832031 -3.96875 2.34375 -3.96875 C 2.613281 -3.96875 2.816406 -3.914062 2.953125 -3.8125 L 2.796875 -3.328125 L 2.71875 -3.3125 C 2.570312 -3.382812 2.410156 -3.421875 2.234375 -3.421875 C 1.921875 -3.421875 1.679688 -3.300781 1.515625 -3.0625 C 1.347656 -2.832031 1.265625 -2.453125 1.265625 -1.921875 L 1.265625 0 Z M 0.6875 0 "/></g></g></g><g fill="#4682b4" fill-opacity="1"><g transform="translate(42.443631, 25.501986)"><g><path d="M 0.96875 -4.6875 C 0.851562 -4.6875 0.753906 -4.722656 0.671875 -4.796875 C 0.597656 -4.878906 0.5625 -4.976562 0.5625 -5.09375 C 0.5625 -5.21875 0.597656 -5.316406 0.671875 -5.390625 C 0.753906 -5.472656 0.851562 -5.515625 0.96875 -5.515625 C 1.09375 -5.515625 1.191406 -5.472656 1.265625 -5.390625 C 1.347656 -5.316406 1.390625 -5.21875 1.390625 -5.09375 C 1.390625 -4.976562 1.347656 -4.878906 1.265625 -4.796875 C 1.191406 -4.722656 1.09375 -4.6875 0.96875 -4.6875 Z M 0.6875 0 L 0.6875 -3.9375 L 1.265625 -3.9375 L 1.265625 0 Z M 0.6875 0 "/></g></g></g><g fill="#4682b4" fill-opacity="1"><g transform="translate(44.756332, 25.501986)"><g><path d="M 0.6875 0 L 0.6875 -3.9375 L 1.234375 -3.9375 L 1.234375 -3.3125 L 1.3125 -3.296875 C 1.4375 -3.523438 1.597656 -3.695312 1.796875 -3.8125 C 2.003906 -3.9375 2.253906 -4 2.546875 -4 C 3.023438 -4 3.367188 -3.878906 3.578125 -3.640625 C 3.796875 -3.398438 3.90625 -3.03125 3.90625 -2.53125 L 3.90625 0 L 3.328125 0 L 3.328125 -2.515625 C 3.328125 -2.753906 3.296875 -2.941406 3.234375 -3.078125 C 3.171875 -3.222656 3.070312 -3.328125 2.9375 -3.390625 C 2.8125 -3.460938 2.648438 -3.5 2.453125 -3.5 C 2.097656 -3.5 1.8125 -3.378906 1.59375 -3.140625 C 1.375 -2.910156 1.265625 -2.535156 1.265625 -2.015625 L 1.265625 0 Z M 0.6875 0 "/></g></g></g><g fill="#4682b4" fill-opacity="1"><g transform="translate(49.643617, 25.501986)"><g><path d="M 2.03125 1.671875 C 1.40625 1.671875 0.945312 1.566406 0.65625 1.359375 C 0.375 1.148438 0.234375 0.875 0.234375 0.53125 C 0.234375 0.3125 0.300781 0.132812 0.4375 0 C 0.570312 -0.125 0.765625 -0.21875 1.015625 -0.28125 L 1.015625 -0.34375 C 0.898438 -0.414062 0.8125 -0.5 0.75 -0.59375 C 0.6875 -0.6875 0.65625 -0.796875 0.65625 -0.921875 C 0.65625 -1.078125 0.703125 -1.203125 0.796875 -1.296875 C 0.890625 -1.390625 1.035156 -1.460938 1.234375 -1.515625 L 1.234375 -1.578125 C 0.804688 -1.804688 0.59375 -2.175781 0.59375 -2.6875 C 0.59375 -2.945312 0.648438 -3.175781 0.765625 -3.375 C 0.878906 -3.570312 1.039062 -3.722656 1.25 -3.828125 C 1.46875 -3.941406 1.722656 -4 2.015625 -4 C 2.347656 -4 2.625 -3.925781 2.84375 -3.78125 C 2.925781 -3.875 2.988281 -3.972656 3.03125 -4.078125 C 3.070312 -4.191406 3.097656 -4.3125 3.109375 -4.4375 L 3.1875 -4.484375 L 3.65625 -4.375 C 3.632812 -4.175781 3.578125 -4.003906 3.484375 -3.859375 C 3.390625 -3.722656 3.253906 -3.613281 3.078125 -3.53125 L 3.078125 -3.453125 C 3.203125 -3.347656 3.296875 -3.226562 3.359375 -3.09375 C 3.421875 -2.96875 3.453125 -2.816406 3.453125 -2.640625 C 3.453125 -2.390625 3.390625 -2.164062 3.265625 -1.96875 C 3.148438 -1.769531 2.984375 -1.613281 2.765625 -1.5 C 2.546875 -1.382812 2.296875 -1.328125 2.015625 -1.328125 C 1.984375 -1.328125 1.925781 -1.332031 1.84375 -1.34375 C 1.75 -1.34375 1.675781 -1.34375 1.625 -1.34375 C 1.5 -1.34375 1.398438 -1.3125 1.328125 -1.25 C 1.253906 -1.1875 1.21875 -1.101562 1.21875 -1 C 1.21875 -0.875 1.253906 -0.78125 1.328125 -0.71875 C 1.410156 -0.664062 1.546875 -0.640625 1.734375 -0.640625 L 2.671875 -0.609375 C 3.066406 -0.585938 3.359375 -0.488281 3.546875 -0.3125 C 3.742188 -0.144531 3.84375 0.09375 3.84375 0.40625 C 3.84375 0.644531 3.78125 0.859375 3.65625 1.046875 C 3.53125 1.234375 3.332031 1.382812 3.0625 1.5 C 2.789062 1.613281 2.445312 1.671875 2.03125 1.671875 Z M 2.015625 -1.828125 C 2.296875 -1.828125 2.507812 -1.898438 2.65625 -2.046875 C 2.8125 -2.191406 2.890625 -2.394531 2.890625 -2.65625 C 2.890625 -2.925781 2.8125 -3.132812 2.65625 -3.28125 C 2.507812 -3.425781 2.296875 -3.5 2.015625 -3.5 C 1.734375 -3.5 1.519531 -3.425781 1.375 -3.28125 C 1.226562 -3.132812 1.15625 -2.925781 1.15625 -2.65625 C 1.15625 -2.394531 1.226562 -2.191406 1.375 -2.046875 C 1.519531 -1.898438 1.734375 -1.828125 2.015625 -1.828125 Z M 2.03125 1.171875 C 2.3125 1.171875 2.546875 1.132812 2.734375 1.0625 C 2.921875 1 3.050781 0.914062 3.125 0.8125 C 3.207031 0.707031 3.25 0.59375 3.25 0.46875 C 3.25 0.34375 3.226562 0.242188 3.1875 0.171875 C 3.144531 0.109375 3.070312 0.0546875 2.96875 0.015625 C 2.875 -0.015625 2.742188 -0.0351562 2.578125 -0.046875 L 1.703125 -0.09375 L 1.578125 -0.09375 C 1.078125 -0.0820312 0.828125 0.109375 0.828125 0.484375 C 0.828125 0.941406 1.226562 1.171875 2.03125 1.171875 Z M 2.03125 1.171875 "/></g></g></g><g fill="#4682b4" fill-opacity="1"><g transform="translate(54.032365, 25.501986)"><g><path d="M 0.96875 -4.6875 C 0.851562 -4.6875 0.753906 -4.722656 0.671875 -4.796875 C 0.597656 -4.878906 0.5625 -4.976562 0.5625 -5.09375 C 0.5625 -5.21875 0.597656 -5.316406 0.671875 -5.390625 C 0.753906 -5.472656 0.851562 -5.515625 0.96875 -5.515625 C 1.09375 -5.515625 1.191406 -5.472656 1.265625 -5.390625 C 1.347656 -5.316406 1.390625 -5.21875 1.390625 -5.09375 C 1.390625 -4.976562 1.347656 -4.878906 1.265625 -4.796875 C 1.191406 -4.722656 1.09375 -4.6875 0.96875 -4.6875 Z M 0.6875 0 L 0.6875 -3.9375 L 1.265625 -3.9375 L 1.265625 0 Z M 0.6875 0 "/></g></g></g><g fill="#4682b4" fill-opacity="1"><g transform="translate(56.345065, 25.501986)"><g><path d="M 0.6875 0 L 0.6875 -3.9375 L 1.234375 -3.9375 L 1.234375 -3.3125 L 1.3125 -3.296875 C 1.4375 -3.523438 1.597656 -3.695312 1.796875 -3.8125 C 2.003906 -3.9375 2.253906 -4 2.546875 -4 C 3.023438 -4 3.367188 -3.878906 3.578125 -3.640625 C 3.796875 -3.398438 3.90625 -3.03125 3.90625 -2.53125 L 3.90625 0 L 3.328125 0 L 3.328125 -2.515625 C 3.328125 -2.753906 3.296875 -2.941406 3.234375 -3.078125 C 3.171875 -3.222656 3.070312 -3.328125 2.9375 -3.390625 C 2.8125 -3.460938 2.648438 -3.5 2.453125 -3.5 C 2.097656 -3.5 1.8125 -3.378906 1.59375 -3.140625 C 1.375 -2.910156 1.265625 -2.535156 1.265625 -2.015625 L 1.265625 0 Z M 0.6875 0 "/></g></g></g><g fill="#4682b4" fill-opacity="1"><g transform="translate(61.232351, 25.501986)"><g><path d="M 2.03125 1.671875 C 1.40625 1.671875 0.945312 1.566406 0.65625 1.359375 C 0.375 1.148438 0.234375 0.875 0.234375 0.53125 C 0.234375 0.3125 0.300781 0.132812 0.4375 0 C 0.570312 -0.125 0.765625 -0.21875 1.015625 -0.28125 L 1.015625 -0.34375 C 0.898438 -0.414062 0.8125 -0.5 0.75 -0.59375 C 0.6875 -0.6875 0.65625 -0.796875 0.65625 -0.921875 C 0.65625 -1.078125 0.703125 -1.203125 0.796875 -1.296875 C 0.890625 -1.390625 1.035156 -1.460938 1.234375 -1.515625 L 1.234375 -1.578125 C 0.804688 -1.804688 0.59375 -2.175781 0.59375 -2.6875 C 0.59375 -2.945312 0.648438 -3.175781 0.765625 -3.375 C 0.878906 -3.570312 1.039062 -3.722656 1.25 -3.828125 C 1.46875 -3.941406 1.722656 -4 2.015625 -4 C 2.347656 -4 2.625 -3.925781 2.84375 -3.78125 C 2.925781 -3.875 2.988281 -3.972656 3.03125 -4.078125 C 3.070312 -4.191406 3.097656 -4.3125 3.109375 -4.4375 L 3.1875 -4.484375 L 3.65625 -4.375 C 3.632812 -4.175781 3.578125 -4.003906 3.484375 -3.859375 C 3.390625 -3.722656 3.253906 -3.613281 3.078125 -3.53125 L 3.078125 -3.453125 C 3.203125 -3.347656 3.296875 -3.226562 3.359375 -3.09375 C 3.421875 -2.96875 3.453125 -2.816406 3.453125 -2.640625 C 3.453125 -2.390625 3.390625 -2.164062 3.265625 -1.96875 C 3.148438 -1.769531 2.984375 -1.613281 2.765625 -1.5 C 2.546875 -1.382812 2.296875 -1.328125 2.015625 -1.328125 C 1.984375 -1.328125 1.925781 -1.332031 1.84375 -1.34375 C 1.75 -1.34375 1.675781 -1.34375 1.625 -1.34375 C 1.5 -1.34375 1.398438 -1.3125 1.328125 -1.25 C 1.253906 -1.1875 1.21875 -1.101562 1.21875 -1 C 1.21875 -0.875 1.253906 -0.78125 1.328125 -0.71875 C 1.410156 -0.664062 1.546875 -0.640625 1.734375 -0.640625 L 2.671875 -0.609375 C 3.066406 -0.585938 3.359375 -0.488281 3.546875 -0.3125 C 3.742188 -0.144531 3.84375 0.09375 3.84375 0.40625 C 3.84375 0.644531 3.78125 0.859375 3.65625 1.046875 C 3.53125 1.234375 3.332031 1.382812 3.0625 1.5 C 2.789062 1.613281 2.445312 1.671875 2.03125 1.671875 Z M 2.015625 -1.828125 C 2.296875 -1.828125 2.507812 -1.898438 2.65625 -2.046875 C 2.8125 -2.191406 2.890625 -2.394531 2.890625 -2.65625 C 2.890625 -2.925781 2.8125 -3.132812 2.65625 -3.28125 C 2.507812 -3.425781 2.296875 -3.5 2.015625 -3.5 C 1.734375 -3.5 1.519531 -3.425781 1.375 -3.28125 C 1.226562 -3.132812 1.15625 -2.925781 1.15625 -2.65625 C 1.15625 -2.394531 1.226562 -2.191406 1.375 -2.046875 C 1.519531 -1.898438 1.734375 -1.828125 2.015625 -1.828125 Z M 2.03125 1.171875 C 2.3125 1.171875 2.546875 1.132812 2.734375 1.0625 C 2.921875 1 3.050781 0.914062 3.125 0.8125 C 3.207031 0.707031 3.25 0.59375 3.25 0.46875 C 3.25 0.34375 3.226562 0.242188 3.1875 0.171875 C 3.144531 0.109375 3.070312 0.0546875 2.96875 0.015625 C 2.875 -0.015625 2.742188 -0.0351562 2.578125 -0.046875 L 1.703125 -0.09375 L 1.578125 -0.09375 C 1.078125 -0.0820312 0.828125 0.109375 0.828125 0.484375 C 0.828125 0.941406 1.226562 1.171875 2.03125 1.171875 Z M 2.03125 1.171875 "/></g></g></g><g fill="#4682b4" fill-opacity="1"><g transform="translate(65.621099, 25.501986)"><g/></g></g><g fill="#4682b4" fill-opacity="1"><g transform="translate(67.773555, 25.501986)"><g><path d="M 1.40625 0 L 0.78125 0 L 0.78125 -5.203125 L 1.40625 -5.203125 Z M 1.40625 0 "/></g></g></g><g fill="#4682b4" fill-opacity="1"><g transform="translate(70.328402, 25.501986)"><g><path d="M 0.6875 0 L 0.6875 -3.9375 L 1.234375 -3.9375 L 1.234375 -3.3125 L 1.3125 -3.296875 C 1.4375 -3.523438 1.597656 -3.695312 1.796875 -3.8125 C 2.003906 -3.9375 2.253906 -4 2.546875 -4 C 3.023438 -4 3.367188 -3.878906 3.578125 -3.640625 C 3.796875 -3.398438 3.90625 -3.03125 3.90625 -2.53125 L 3.90625 0 L 3.328125 0 L 3.328125 -2.515625 C 3.328125 -2.753906 3.296875 -2.941406 3.234375 -3.078125 C 3.171875 -3.222656 3.070312 -3.328125 2.9375 -3.390625 C 2.8125 -3.460938 2.648438 -3.5 2.453125 -3.5 C 2.097656 -3.5 1.8125 -3.378906 1.59375 -3.140625 C 1.375 -2.910156 1.265625 -2.535156 1.265625 -2.015625 L 1.265625 0 Z M 0.6875 0 "/></g></g></g><g fill="#4682b4" fill-opacity="1"><g transform="translate(75.215686, 25.501986)"><g><path d="M 0.6875 0 L 0.6875 -3.9375 L 1.234375 -3.9375 L 1.234375 -3.3125 L 1.3125 -3.296875 C 1.4375 -3.523438 1.597656 -3.695312 1.796875 -3.8125 C 2.003906 -3.9375 2.253906 -4 2.546875 -4 C 3.023438 -4 3.367188 -3.878906 3.578125 -3.640625 C 3.796875 -3.398438 3.90625 -3.03125 3.90625 -2.53125 L 3.90625 0 L 3.328125 0 L 3.328125 -2.515625 C 3.328125 -2.753906 3.296875 -2.941406 3.234375 -3.078125 C 3.171875 -3.222656 3.070312 -3.328125 2.9375 -3.390625 C 2.8125 -3.460938 2.648438 -3.5 2.453125 -3.5 C 2.097656 -3.5 1.8125 -3.378906 1.59375 -3.140625 C 1.375 -2.910156 1.265625 -2.535156 1.265625 -2.015625 L 1.265625 0 Z M 0.6875 0 "/></g></g></g><g fill="#4682b4" fill-opacity="1"><g transform="translate(80.102971, 25.501986)"><g><path d="M 2.25 0.078125 C 1.882812 0.078125 1.5625 0 1.28125 -0.15625 C 1.007812 -0.3125 0.800781 -0.539062 0.65625 -0.84375 C 0.507812 -1.15625 0.4375 -1.53125 0.4375 -1.96875 C 0.4375 -2.394531 0.507812 -2.757812 0.65625 -3.0625 C 0.800781 -3.375 1.007812 -3.609375 1.28125 -3.765625 C 1.5625 -3.921875 1.882812 -4 2.25 -4 C 2.625 -4 2.945312 -3.921875 3.21875 -3.765625 C 3.5 -3.609375 3.710938 -3.375 3.859375 -3.0625 C 4.003906 -2.757812 4.078125 -2.394531 4.078125 -1.96875 C 4.078125 -1.53125 4.003906 -1.15625 3.859375 -0.84375 C 3.710938 -0.539062 3.5 -0.3125 3.21875 -0.15625 C 2.945312 0 2.625 0.078125 2.25 0.078125 Z M 2.25 -0.453125 C 2.644531 -0.453125 2.945312 -0.570312 3.15625 -0.8125 C 3.363281 -1.0625 3.46875 -1.445312 3.46875 -1.96875 C 3.46875 -2.488281 3.363281 -2.867188 3.15625 -3.109375 C 2.945312 -3.359375 2.644531 -3.484375 2.25 -3.484375 C 1.863281 -3.484375 1.566406 -3.359375 1.359375 -3.109375 C 1.148438 -2.859375 1.046875 -2.476562 1.046875 -1.96875 C 1.046875 -1.445312 1.148438 -1.0625 1.359375 -0.8125 C 1.566406 -0.570312 1.863281 -0.453125 2.25 -0.453125 Z M 2.25 -0.453125 "/></g></g></g><g fill="#4682b4" fill-opacity="1"><g transform="translate(84.976014, 25.501986)"><g><path d="M 2.484375 0 L 1.6875 0 L 0.1875 -3.9375 L 0.8125 -3.9375 L 2.0625 -0.65625 L 2.140625 -0.65625 L 3.359375 -3.9375 L 3.96875 -3.9375 Z M 2.484375 0 "/></g></g></g><g fill="#4682b4" fill-opacity="1"><g transform="translate(89.50364, 25.501986)"><g><path d="M 1.625 0.078125 C 1.238281 0.078125 0.9375 -0.0195312 0.71875 -0.21875 C 0.5 -0.425781 0.390625 -0.71875 0.390625 -1.09375 C 0.390625 -1.320312 0.4375 -1.515625 0.53125 -1.671875 C 0.625 -1.835938 0.769531 -1.972656 0.96875 -2.078125 C 1.175781 -2.179688 1.441406 -2.257812 1.765625 -2.3125 C 2.054688 -2.351562 2.273438 -2.40625 2.421875 -2.46875 C 2.566406 -2.53125 2.664062 -2.597656 2.71875 -2.671875 C 2.769531 -2.742188 2.796875 -2.835938 2.796875 -2.953125 C 2.796875 -3.128906 2.734375 -3.265625 2.609375 -3.359375 C 2.492188 -3.453125 2.300781 -3.5 2.03125 -3.5 C 1.769531 -3.5 1.546875 -3.445312 1.359375 -3.34375 C 1.179688 -3.25 1.019531 -3.101562 0.875 -2.90625 L 0.796875 -2.90625 L 0.515625 -3.3125 C 0.679688 -3.519531 0.890625 -3.6875 1.140625 -3.8125 C 1.398438 -3.9375 1.695312 -4 2.03125 -4 C 2.488281 -4 2.828125 -3.894531 3.046875 -3.6875 C 3.265625 -3.488281 3.375 -3.210938 3.375 -2.859375 L 3.375 -0.765625 C 3.375 -0.554688 3.46875 -0.453125 3.65625 -0.453125 C 3.71875 -0.453125 3.773438 -0.460938 3.828125 -0.484375 L 3.890625 -0.46875 L 3.953125 -0.0625 C 3.910156 -0.03125 3.851562 -0.0078125 3.78125 0 C 3.707031 0.0195312 3.632812 0.03125 3.5625 0.03125 C 3.351562 0.03125 3.191406 -0.015625 3.078125 -0.109375 C 2.960938 -0.203125 2.890625 -0.34375 2.859375 -0.53125 L 2.796875 -0.546875 C 2.679688 -0.335938 2.523438 -0.179688 2.328125 -0.078125 C 2.140625 0.0234375 1.90625 0.078125 1.625 0.078125 Z M 1.75 -0.390625 C 1.96875 -0.390625 2.15625 -0.4375 2.3125 -0.53125 C 2.476562 -0.632812 2.601562 -0.773438 2.6875 -0.953125 C 2.769531 -1.140625 2.8125 -1.351562 2.8125 -1.59375 L 2.8125 -2.09375 L 2.75 -2.109375 C 2.65625 -2.046875 2.546875 -1.992188 2.421875 -1.953125 C 2.296875 -1.910156 2.125 -1.875 1.90625 -1.84375 C 1.675781 -1.8125 1.492188 -1.765625 1.359375 -1.703125 C 1.222656 -1.640625 1.125 -1.554688 1.0625 -1.453125 C 1.007812 -1.359375 0.984375 -1.238281 0.984375 -1.09375 C 0.984375 -0.863281 1.050781 -0.6875 1.1875 -0.5625 C 1.320312 -0.445312 1.507812 -0.390625 1.75 -0.390625 Z M 1.75 -0.390625 "/></g></g></g><g fill="#4682b4" fill-opacity="1"><g transform="translate(93.931559, 25.501986)"><g><path d="M 2.65625 -0.625 L 2.84375 -0.203125 C 2.75 -0.109375 2.625 -0.0390625 2.46875 0 C 2.320312 0.0507812 2.160156 0.078125 1.984375 0.078125 C 1.234375 0.078125 0.859375 -0.300781 0.859375 -1.0625 L 0.859375 -3.453125 L 0.171875 -3.453125 L 0.171875 -3.9375 L 0.859375 -3.9375 L 0.859375 -4.765625 L 1.4375 -4.859375 L 1.4375 -3.9375 L 2.703125 -3.9375 L 2.703125 -3.453125 L 1.4375 -3.453125 L 1.4375 -1.125 C 1.4375 -0.675781 1.632812 -0.453125 2.03125 -0.453125 C 2.238281 -0.453125 2.421875 -0.507812 2.578125 -0.625 Z M 2.65625 -0.625 "/></g></g></g><g fill="#4682b4" fill-opacity="1"><g transform="translate(97.287625, 25.501986)"><g><path d="M 0.96875 -4.6875 C 0.851562 -4.6875 0.753906 -4.722656 0.671875 -4.796875 C 0.597656 -4.878906 0.5625 -4.976562 0.5625 -5.09375 C 0.5625 -5.21875 0.597656 -5.316406 0.671875 -5.390625 C 0.753906 -5.472656 0.851562 -5.515625 0.96875 -5.515625 C 1.09375 -5.515625 1.191406 -5.472656 1.265625 -5.390625 C 1.347656 -5.316406 1.390625 -5.21875 1.390625 -5.09375 C 1.390625 -4.976562 1.347656 -4.878906 1.265625 -4.796875 C 1.191406 -4.722656 1.09375 -4.6875 0.96875 -4.6875 Z M 0.6875 0 L 0.6875 -3.9375 L 1.265625 -3.9375 L 1.265625 0 Z M 0.6875 0 "/></g></g></g><g fill="#4682b4" fill-opacity="1"><g transform="translate(99.600325, 25.501986)"><g><path d="M 2.25 0.078125 C 1.882812 0.078125 1.5625 0 1.28125 -0.15625 C 1.007812 -0.3125 0.800781 -0.539062 0.65625 -0.84375 C 0.507812 -1.15625 0.4375 -1.53125 0.4375 -1.96875 C 0.4375 -2.394531 0.507812 -2.757812 0.65625 -3.0625 C 0.800781 -3.375 1.007812 -3.609375 1.28125 -3.765625 C 1.5625 -3.921875 1.882812 -4 2.25 -4 C 2.625 -4 2.945312 -3.921875 3.21875 -3.765625 C 3.5 -3.609375 3.710938 -3.375 3.859375 -3.0625 C 4.003906 -2.757812 4.078125 -2.394531 4.078125 -1.96875 C 4.078125 -1.53125 4.003906 -1.15625 3.859375 -0.84375 C 3.710938 -0.539062 3.5 -0.3125 3.21875 -0.15625 C 2.945312 0 2.625 0.078125 2.25 0.078125 Z M 2.25 -0.453125 C 2.644531 -0.453125 2.945312 -0.570312 3.15625 -0.8125 C 3.363281 -1.0625 3.46875 -1.445312 3.46875 -1.96875 C 3.46875 -2.488281 3.363281 -2.867188 3.15625 -3.109375 C 2.945312 -3.359375 2.644531 -3.484375 2.25 -3.484375 C 1.863281 -3.484375 1.566406 -3.359375 1.359375 -3.109375 C 1.148438 -2.859375 1.046875 -2.476562 1.046875 -1.96875 C 1.046875 -1.445312 1.148438 -1.0625 1.359375 -0.8125 C 1.566406 -0.570312 1.863281 -0.453125 2.25 -0.453125 Z M 2.25 -0.453125 "/></g></g></g><g fill="#4682b4" fill-opacity="1"><g transform="translate(104.473365, 25.501986)"><g><path d="M 0.6875 0 L 0.6875 -3.9375 L 1.234375 -3.9375 L 1.234375 -3.3125 L 1.3125 -3.296875 C 1.4375 -3.523438 1.597656 -3.695312 1.796875 -3.8125 C 2.003906 -3.9375 2.253906 -4 2.546875 -4 C 3.023438 -4 3.367188 -3.878906 3.578125 -3.640625 C 3.796875 -3.398438 3.90625 -3.03125 3.90625 -2.53125 L 3.90625 0 L 3.328125 0 L 3.328125 -2.515625 C 3.328125 -2.753906 3.296875 -2.941406 3.234375 -3.078125 C 3.171875 -3.222656 3.070312 -3.328125 2.9375 -3.390625 C 2.8125 -3.460938 2.648438 -3.5 2.453125 -3.5 C 2.097656 -3.5 1.8125 -3.378906 1.59375 -3.140625 C 1.375 -2.910156 1.265625 -2.535156 1.265625 -2.015625 L 1.265625 0 Z M 0.6875 0 "/></g></g></g><g fill="#4682b4" fill-opacity="1"><g transform="translate(109.36065, 25.501986)"><g/></g></g><g fill="#4682b4" fill-opacity="1"><g transform="translate(111.513106, 25.501986)"><g><path d="M 2.65625 -0.625 L 2.84375 -0.203125 C 2.75 -0.109375 2.625 -0.0390625 2.46875 0 C 2.320312 0.0507812 2.160156 0.078125 1.984375 0.078125 C 1.234375 0.078125 0.859375 -0.300781 0.859375 -1.0625 L 0.859375 -3.453125 L 0.171875 -3.453125 L 0.171875 -3.9375 L 0.859375 -3.9375 L 0.859375 -4.765625 L 1.4375 -4.859375 L 1.4375 -3.9375 L 2.703125 -3.9375 L 2.703125 -3.453125 L 1.4375 -3.453125 L 1.4375 -1.125 C 1.4375 -0.675781 1.632812 -0.453125 2.03125 -0.453125 C 2.238281 -0.453125 2.421875 -0.507812 2.578125 -0.625 Z M 2.65625 -0.625 "/></g></g></g><g fill="#4682b4" fill-opacity="1"><g transform="translate(114.869172, 25.501986)"><g><path d="M 2.25 0.078125 C 1.882812 0.078125 1.5625 0 1.28125 -0.15625 C 1.007812 -0.3125 0.800781 -0.539062 0.65625 -0.84375 C 0.507812 -1.15625 0.4375 -1.53125 0.4375 -1.96875 C 0.4375 -2.394531 0.507812 -2.757812 0.65625 -3.0625 C 0.800781 -3.375 1.007812 -3.609375 1.28125 -3.765625 C 1.5625 -3.921875 1.882812 -4 2.25 -4 C 2.625 -4 2.945312 -3.921875 3.21875 -3.765625 C 3.5 -3.609375 3.710938 -3.375 3.859375 -3.0625 C 4.003906 -2.757812 4.078125 -2.394531 4.078125 -1.96875 C 4.078125 -1.53125 4.003906 -1.15625 3.859375 -0.84375 C 3.710938 -0.539062 3.5 -0.3125 3.21875 -0.15625 C 2.945312 0 2.625 0.078125 2.25 0.078125 Z M 2.25 -0.453125 C 2.644531 -0.453125 2.945312 -0.570312 3.15625 -0.8125 C 3.363281 -1.0625 3.46875 -1.445312 3.46875 -1.96875 C 3.46875 -2.488281 3.363281 -2.867188 3.15625 -3.109375 C 2.945312 -3.359375 2.644531 -3.484375 2.25 -3.484375 C 1.863281 -3.484375 1.566406 -3.359375 1.359375 -3.109375 C 1.148438 -2.859375 1.046875 -2.476562 1.046875 -1.96875 C 1.046875 -1.445312 1.148438 -1.0625 1.359375 -0.8125 C 1.566406 -0.570312 1.863281 -0.453125 2.25 -0.453125 Z M 2.25 -0.453125 "/></g></g></g><g fill="#4682b4" fill-opacity="1"><g transform="translate(119.742212, 25.501986)"><g/></g></g><g fill="#4682b4" fill-opacity="1"><g transform="translate(121.894669, 25.501986)"><g><path d="M 2.546875 0 L 1.9375 0 L 1.9375 -2.046875 L 0.140625 -5.203125 L 0.8125 -5.203125 L 2.203125 -2.765625 L 2.296875 -2.765625 L 3.6875 -5.203125 L 4.34375 -5.203125 L 2.546875 -2.046875 Z M 2.546875 0 "/></g></g></g><g fill="#4682b4" fill-opacity="1"><g transform="translate(126.735661, 25.501986)"><g><path d="M 2.25 0.078125 C 1.882812 0.078125 1.5625 0 1.28125 -0.15625 C 1.007812 -0.3125 0.800781 -0.539062 0.65625 -0.84375 C 0.507812 -1.15625 0.4375 -1.53125 0.4375 -1.96875 C 0.4375 -2.394531 0.507812 -2.757812 0.65625 -3.0625 C 0.800781 -3.375 1.007812 -3.609375 1.28125 -3.765625 C 1.5625 -3.921875 1.882812 -4 2.25 -4 C 2.625 -4 2.945312 -3.921875 3.21875 -3.765625 C 3.5 -3.609375 3.710938 -3.375 3.859375 -3.0625 C 4.003906 -2.757812 4.078125 -2.394531 4.078125 -1.96875 C 4.078125 -1.53125 4.003906 -1.15625 3.859375 -0.84375 C 3.710938 -0.539062 3.5 -0.3125 3.21875 -0.15625 C 2.945312 0 2.625 0.078125 2.25 0.078125 Z M 2.25 -0.453125 C 2.644531 -0.453125 2.945312 -0.570312 3.15625 -0.8125 C 3.363281 -1.0625 3.46875 -1.445312 3.46875 -1.96875 C 3.46875 -2.488281 3.363281 -2.867188 3.15625 -3.109375 C 2.945312 -3.359375 2.644531 -3.484375 2.25 -3.484375 C 1.863281 -3.484375 1.566406 -3.359375 1.359375 -3.109375 C 1.148438 -2.859375 1.046875 -2.476562 1.046875 -1.96875 C 1.046875 -1.445312 1.148438 -1.0625 1.359375 -0.8125 C 1.566406 -0.570312 1.863281 -0.453125 2.25 -0.453125 Z M 2.25 -0.453125 "/></g></g></g><g fill="#4682b4" fill-opacity="1"><g transform="translate(131.608701, 25.501986)"><g><path d="M 1.9375 0.078125 C 1.5 0.078125 1.171875 -0.0351562 0.953125 -0.265625 C 0.734375 -0.503906 0.625 -0.851562 0.625 -1.3125 L 0.625 -3.9375 L 1.203125 -3.9375 L 1.203125 -1.328125 C 1.203125 -0.734375 1.484375 -0.4375 2.046875 -0.4375 C 2.398438 -0.4375 2.679688 -0.550781 2.890625 -0.78125 C 3.097656 -1.007812 3.203125 -1.382812 3.203125 -1.90625 L 3.203125 -3.9375 L 3.78125 -3.9375 L 3.78125 0 L 3.234375 0 L 3.234375 -0.609375 L 3.15625 -0.640625 C 3.019531 -0.398438 2.859375 -0.21875 2.671875 -0.09375 C 2.484375 0.0195312 2.238281 0.078125 1.9375 0.078125 Z M 1.9375 0.078125 "/></g></g></g><g fill="#4682b4" fill-opacity="1"><g transform="translate(136.435449, 25.501986)"><g><path d="M 0.6875 0 L 0.6875 -3.9375 L 1.234375 -3.9375 L 1.234375 -3.3125 L 1.3125 -3.296875 C 1.488281 -3.742188 1.832031 -3.96875 2.34375 -3.96875 C 2.613281 -3.96875 2.816406 -3.914062 2.953125 -3.8125 L 2.796875 -3.328125 L 2.71875 -3.3125 C 2.570312 -3.382812 2.410156 -3.421875 2.234375 -3.421875 C 1.921875 -3.421875 1.679688 -3.300781 1.515625 -3.0625 C 1.347656 -2.832031 1.265625 -2.453125 1.265625 -1.921875 L 1.265625 0 Z M 0.6875 0 "/></g></g></g><g fill="#4682b4" fill-opacity="1"><g transform="translate(139.834252, 25.501986)"><g/></g></g><g fill="#4682b4" fill-opacity="1"><g transform="translate(141.986715, 25.501986)"><g><path d="M 3.84375 -5.203125 L 3.84375 -4.703125 L 1.40625 -4.703125 L 1.40625 -2.8125 L 3.609375 -2.8125 L 3.609375 -2.296875 L 1.40625 -2.296875 L 1.40625 0 L 0.78125 0 L 0.78125 -5.203125 Z M 3.84375 -5.203125 "/></g></g></g><g fill="#4682b4" fill-opacity="1"><g transform="translate(146.478731, 25.501986)"><g><path d="M 0.96875 -4.6875 C 0.851562 -4.6875 0.753906 -4.722656 0.671875 -4.796875 C 0.597656 -4.878906 0.5625 -4.976562 0.5625 -5.09375 C 0.5625 -5.21875 0.597656 -5.316406 0.671875 -5.390625 C 0.753906 -5.472656 0.851562 -5.515625 0.96875 -5.515625 C 1.09375 -5.515625 1.191406 -5.472656 1.265625 -5.390625 C 1.347656 -5.316406 1.390625 -5.21875 1.390625 -5.09375 C 1.390625 -4.976562 1.347656 -4.878906 1.265625 -4.796875 C 1.191406 -4.722656 1.09375 -4.6875 0.96875 -4.6875 Z M 0.6875 0 L 0.6875 -3.9375 L 1.265625 -3.9375 L 1.265625 0 Z M 0.6875 0 "/></g></g></g><g fill="#4682b4" fill-opacity="1"><g transform="translate(148.791431, 25.501986)"><g><path d="M 0.6875 0 L 0.6875 -3.9375 L 1.234375 -3.9375 L 1.234375 -3.3125 L 1.3125 -3.296875 C 1.4375 -3.523438 1.597656 -3.695312 1.796875 -3.8125 C 2.003906 -3.9375 2.253906 -4 2.546875 -4 C 3.023438 -4 3.367188 -3.878906 3.578125 -3.640625 C 3.796875 -3.398438 3.90625 -3.03125 3.90625 -2.53125 L 3.90625 0 L 3.328125 0 L 3.328125 -2.515625 C 3.328125 -2.753906 3.296875 -2.941406 3.234375 -3.078125 C 3.171875 -3.222656 3.070312 -3.328125 2.9375 -3.390625 C 2.8125 -3.460938 2.648438 -3.5 2.453125 -3.5 C 2.097656 -3.5 1.8125 -3.378906 1.59375 -3.140625 C 1.375 -2.910156 1.265625 -2.535156 1.265625 -2.015625 L 1.265625 0 Z M 0.6875 0 "/></g></g></g><g fill="#4682b4" fill-opacity="1"><g transform="translate(153.678722, 25.501986)"><g><path d="M 2.03125 1.671875 C 1.40625 1.671875 0.945312 1.566406 0.65625 1.359375 C 0.375 1.148438 0.234375 0.875 0.234375 0.53125 C 0.234375 0.3125 0.300781 0.132812 0.4375 0 C 0.570312 -0.125 0.765625 -0.21875 1.015625 -0.28125 L 1.015625 -0.34375 C 0.898438 -0.414062 0.8125 -0.5 0.75 -0.59375 C 0.6875 -0.6875 0.65625 -0.796875 0.65625 -0.921875 C 0.65625 -1.078125 0.703125 -1.203125 0.796875 -1.296875 C 0.890625 -1.390625 1.035156 -1.460938 1.234375 -1.515625 L 1.234375 -1.578125 C 0.804688 -1.804688 0.59375 -2.175781 0.59375 -2.6875 C 0.59375 -2.945312 0.648438 -3.175781 0.765625 -3.375 C 0.878906 -3.570312 1.039062 -3.722656 1.25 -3.828125 C 1.46875 -3.941406 1.722656 -4 2.015625 -4 C 2.347656 -4 2.625 -3.925781 2.84375 -3.78125 C 2.925781 -3.875 2.988281 -3.972656 3.03125 -4.078125 C 3.070312 -4.191406 3.097656 -4.3125 3.109375 -4.4375 L 3.1875 -4.484375 L 3.65625 -4.375 C 3.632812 -4.175781 3.578125 -4.003906 3.484375 -3.859375 C 3.390625 -3.722656 3.253906 -3.613281 3.078125 -3.53125 L 3.078125 -3.453125 C 3.203125 -3.347656 3.296875 -3.226562 3.359375 -3.09375 C 3.421875 -2.96875 3.453125 -2.816406 3.453125 -2.640625 C 3.453125 -2.390625 3.390625 -2.164062 3.265625 -1.96875 C 3.148438 -1.769531 2.984375 -1.613281 2.765625 -1.5 C 2.546875 -1.382812 2.296875 -1.328125 2.015625 -1.328125 C 1.984375 -1.328125 1.925781 -1.332031 1.84375 -1.34375 C 1.75 -1.34375 1.675781 -1.34375 1.625 -1.34375 C 1.5 -1.34375 1.398438 -1.3125 1.328125 -1.25 C 1.253906 -1.1875 1.21875 -1.101562 1.21875 -1 C 1.21875 -0.875 1.253906 -0.78125 1.328125 -0.71875 C 1.410156 -0.664062 1.546875 -0.640625 1.734375 -0.640625 L 2.671875 -0.609375 C 3.066406 -0.585938 3.359375 -0.488281 3.546875 -0.3125 C 3.742188 -0.144531 3.84375 0.09375 3.84375 0.40625 C 3.84375 0.644531 3.78125 0.859375 3.65625 1.046875 C 3.53125 1.234375 3.332031 1.382812 3.0625 1.5 C 2.789062 1.613281 2.445312 1.671875 2.03125 1.671875 Z M 2.015625 -1.828125 C 2.296875 -1.828125 2.507812 -1.898438 2.65625 -2.046875 C 2.8125 -2.191406 2.890625 -2.394531 2.890625 -2.65625 C 2.890625 -2.925781 2.8125 -3.132812 2.65625 -3.28125 C 2.507812 -3.425781 2.296875 -3.5 2.015625 -3.5 C 1.734375 -3.5 1.519531 -3.425781 1.375 -3.28125 C 1.226562 -3.132812 1.15625 -2.925781 1.15625 -2.65625 C 1.15625 -2.394531 1.226562 -2.191406 1.375 -2.046875 C 1.519531 -1.898438 1.734375 -1.828125 2.015625 -1.828125 Z M 2.03125 1.171875 C 2.3125 1.171875 2.546875 1.132812 2.734375 1.0625 C 2.921875 1 3.050781 0.914062 3.125 0.8125 C 3.207031 0.707031 3.25 0.59375 3.25 0.46875 C 3.25 0.34375 3.226562 0.242188 3.1875 0.171875 C 3.144531 0.109375 3.070312 0.0546875 2.96875 0.015625 C 2.875 -0.015625 2.742188 -0.0351562 2.578125 -0.046875 L 1.703125 -0.09375 L 1.578125 -0.09375 C 1.078125 -0.0820312 0.828125 0.109375 0.828125 0.484375 C 0.828125 0.941406 1.226562 1.171875 2.03125 1.171875 Z M 2.03125 1.171875 "/></g></g></g><g fill="#4682b4" fill-opacity="1"><g transform="translate(158.067476, 25.501986)"><g><path d="M 3.75 -1.828125 L 1.046875 -1.828125 C 1.054688 -1.347656 1.164062 -1 1.375 -0.78125 C 1.59375 -0.5625 1.890625 -0.453125 2.265625 -0.453125 C 2.546875 -0.453125 2.769531 -0.5 2.9375 -0.59375 C 3.113281 -0.695312 3.25 -0.851562 3.34375 -1.0625 L 3.421875 -1.0625 L 3.796875 -0.84375 C 3.679688 -0.550781 3.5 -0.320312 3.25 -0.15625 C 3 0 2.671875 0.078125 2.265625 0.078125 C 1.878906 0.078125 1.550781 0.00390625 1.28125 -0.140625 C 1.007812 -0.296875 0.800781 -0.523438 0.65625 -0.828125 C 0.507812 -1.128906 0.4375 -1.507812 0.4375 -1.96875 C 0.4375 -2.414062 0.507812 -2.789062 0.65625 -3.09375 C 0.8125 -3.394531 1.023438 -3.617188 1.296875 -3.765625 C 1.566406 -3.921875 1.878906 -4 2.234375 -4 C 2.734375 -4 3.125 -3.859375 3.40625 -3.578125 C 3.6875 -3.296875 3.828125 -2.875 3.828125 -2.3125 C 3.828125 -2.09375 3.820312 -1.945312 3.8125 -1.875 Z M 3.265625 -2.3125 C 3.253906 -2.726562 3.160156 -3.03125 2.984375 -3.21875 C 2.804688 -3.414062 2.554688 -3.515625 2.234375 -3.515625 C 1.878906 -3.515625 1.601562 -3.414062 1.40625 -3.21875 C 1.21875 -3.03125 1.101562 -2.726562 1.0625 -2.3125 Z M 3.265625 -2.3125 "/></g></g></g><g fill="#4682b4" fill-opacity="1"><g transform="translate(162.620034, 25.501986)"><g><path d="M 0.6875 0 L 0.6875 -3.9375 L 1.234375 -3.9375 L 1.234375 -3.3125 L 1.3125 -3.296875 C 1.488281 -3.742188 1.832031 -3.96875 2.34375 -3.96875 C 2.613281 -3.96875 2.816406 -3.914062 2.953125 -3.8125 L 2.796875 -3.328125 L 2.71875 -3.3125 C 2.570312 -3.382812 2.410156 -3.421875 2.234375 -3.421875 C 1.921875 -3.421875 1.679688 -3.300781 1.515625 -3.0625 C 1.347656 -2.832031 1.265625 -2.453125 1.265625 -1.921875 L 1.265625 0 Z M 0.6875 0 "/></g></g></g><g fill="#4682b4" fill-opacity="1"><g transform="translate(166.018838, 25.501986)"><g><path d="M 2.65625 -0.625 L 2.84375 -0.203125 C 2.75 -0.109375 2.625 -0.0390625 2.46875 0 C 2.320312 0.0507812 2.160156 0.078125 1.984375 0.078125 C 1.234375 0.078125 0.859375 -0.300781 0.859375 -1.0625 L 0.859375 -3.453125 L 0.171875 -3.453125 L 0.171875 -3.9375 L 0.859375 -3.9375 L 0.859375 -4.765625 L 1.4375 -4.859375 L 1.4375 -3.9375 L 2.703125 -3.9375 L 2.703125 -3.453125 L 1.4375 -3.453125 L 1.4375 -1.125 C 1.4375 -0.675781 1.632812 -0.453125 2.03125 -0.453125 C 2.238281 -0.453125 2.421875 -0.507812 2.578125 -0.625 Z M 2.65625 -0.625 "/></g></g></g><g fill="#4682b4" fill-opacity="1"><g transform="translate(169.374909, 25.501986)"><g><path d="M 0.96875 -4.6875 C 0.851562 -4.6875 0.753906 -4.722656 0.671875 -4.796875 C 0.597656 -4.878906 0.5625 -4.976562 0.5625 -5.09375 C 0.5625 -5.21875 0.597656 -5.316406 0.671875 -5.390625 C 0.753906 -5.472656 0.851562 -5.515625 0.96875 -5.515625 C 1.09375 -5.515625 1.191406 -5.472656 1.265625 -5.390625 C 1.347656 -5.316406 1.390625 -5.21875 1.390625 -5.09375 C 1.390625 -4.976562 1.347656 -4.878906 1.265625 -4.796875 C 1.191406 -4.722656 1.09375 -4.6875 0.96875 -4.6875 Z M 0.6875 0 L 0.6875 -3.9375 L 1.265625 -3.9375 L 1.265625 0 Z M 0.6875 0 "/></g></g></g><g fill="#4682b4" fill-opacity="1"><g transform="translate(171.68761, 25.501986)"><g><path d="M 0.6875 1.59375 L 0.6875 -3.9375 L 1.265625 -3.9375 L 1.265625 -3.34375 L 1.34375 -3.328125 C 1.632812 -3.773438 2.0625 -4 2.625 -4 C 2.957031 -4 3.242188 -3.925781 3.484375 -3.78125 C 3.722656 -3.632812 3.910156 -3.40625 4.046875 -3.09375 C 4.179688 -2.789062 4.25 -2.414062 4.25 -1.96875 C 4.25 -1.519531 4.175781 -1.140625 4.03125 -0.828125 C 3.894531 -0.523438 3.703125 -0.296875 3.453125 -0.140625 C 3.203125 0.00390625 2.910156 0.078125 2.578125 0.078125 C 2.316406 0.078125 2.082031 0.03125 1.875 -0.0625 C 1.664062 -0.15625 1.488281 -0.304688 1.34375 -0.515625 L 1.265625 -0.5 L 1.265625 1.59375 Z M 2.453125 -0.453125 C 3.253906 -0.453125 3.65625 -0.957031 3.65625 -1.96875 C 3.65625 -2.976562 3.253906 -3.484375 2.453125 -3.484375 C 2.222656 -3.484375 2.019531 -3.425781 1.84375 -3.3125 C 1.664062 -3.207031 1.523438 -3.039062 1.421875 -2.8125 C 1.316406 -2.59375 1.265625 -2.3125 1.265625 -1.96875 C 1.265625 -1.625 1.316406 -1.335938 1.421875 -1.109375 C 1.523438 -0.878906 1.664062 -0.710938 1.84375 -0.609375 C 2.019531 -0.503906 2.222656 -0.453125 2.453125 -0.453125 Z M 2.453125 -0.453125 "/></g></g></g><g fill="#4682b4" fill-opacity="1"><g transform="translate(176.738705, 25.501986)"><g><path d="M 1.796875 0.078125 C 1.546875 0.078125 1.316406 0.046875 1.109375 -0.015625 C 0.898438 -0.0859375 0.722656 -0.179688 0.578125 -0.296875 C 0.429688 -0.410156 0.328125 -0.535156 0.265625 -0.671875 L 0.609375 -1.03125 L 0.6875 -1.03125 C 0.8125 -0.832031 0.960938 -0.6875 1.140625 -0.59375 C 1.328125 -0.5 1.546875 -0.453125 1.796875 -0.453125 C 2.085938 -0.453125 2.304688 -0.503906 2.453125 -0.609375 C 2.597656 -0.722656 2.671875 -0.882812 2.671875 -1.09375 C 2.671875 -1.238281 2.625 -1.363281 2.53125 -1.46875 C 2.445312 -1.570312 2.300781 -1.648438 2.09375 -1.703125 L 1.4375 -1.859375 C 1.082031 -1.941406 0.820312 -2.078125 0.65625 -2.265625 C 0.5 -2.453125 0.421875 -2.679688 0.421875 -2.953125 C 0.421875 -3.171875 0.472656 -3.359375 0.578125 -3.515625 C 0.691406 -3.671875 0.847656 -3.789062 1.046875 -3.875 C 1.253906 -3.957031 1.5 -4 1.78125 -4 C 2.144531 -4 2.429688 -3.945312 2.640625 -3.84375 C 2.847656 -3.75 3.007812 -3.613281 3.125 -3.4375 L 2.796875 -3.109375 L 2.71875 -3.109375 C 2.59375 -3.253906 2.457031 -3.359375 2.3125 -3.421875 C 2.164062 -3.484375 1.988281 -3.515625 1.78125 -3.515625 C 1.519531 -3.515625 1.320312 -3.46875 1.1875 -3.375 C 1.050781 -3.289062 0.984375 -3.160156 0.984375 -2.984375 C 0.984375 -2.816406 1.03125 -2.6875 1.125 -2.59375 C 1.226562 -2.5 1.398438 -2.421875 1.640625 -2.359375 L 2.296875 -2.203125 C 2.628906 -2.117188 2.875 -1.984375 3.03125 -1.796875 C 3.1875 -1.609375 3.265625 -1.375 3.265625 -1.09375 C 3.265625 -0.863281 3.207031 -0.660156 3.09375 -0.484375 C 2.988281 -0.304688 2.820312 -0.164062 2.59375 -0.0625 C 2.375 0.03125 2.109375 0.078125 1.796875 0.078125 Z M 1.796875 0.078125 "/></g></g></g></svg>